<svg shape-rendering="optimizeSpeed" xmlns="http://www.w3.org/2000/svg">
	<symbol id="calendar" viewBox="0 0 16 16" fill="currentColor">
		<path id="calendar" d="M6 1.33337C6.36819 1.33337 6.66667 1.63185 6.66667 2.00004V2.66671H9.33333V2.00004C9.33333 1.63185 9.63181 1.33337 10 1.33337C10.3682 1.33337 10.6667 1.63185 10.6667 2.00004V2.66671H12.6667C13.403 2.66671 14 3.26366 14 4.00004V12.6667C14 13.4031 13.403 14 12.6667 14H3.33333C2.59695 14 2 13.4031 2 12.6667V4.00004C2 3.26366 2.59695 2.66671 3.33333 2.66671H5.33333V2.00004C5.33333 1.63185 5.63181 1.33337 6 1.33337ZM5.33333 4.00004H3.33333V6.00004H12.6667V4.00004H10.6667V4.66671C10.6667 5.0349 10.3682 5.33337 10 5.33337C9.63181 5.33337 9.33333 5.0349 9.33333 4.66671V4.00004H6.66667V4.66671C6.66667 5.0349 6.36819 5.33337 6 5.33337C5.63181 5.33337 5.33333 5.0349 5.33333 4.66671V4.00004ZM12.6667 7.33337H3.33333V12.6667H12.6667V7.33337Z" />
	</symbol>
</svg>