<svg shape-rendering="optimizeSpeed" xmlns="http://www.w3.org/2000/svg">
  <symbol id="circle-warning" fill="currentColor" viewBox="0 0 16 16">
    <path id="circle-warning" d="M8 1.6C4.46538 1.6 1.6 4.46538 1.6 8C1.6 11.5346 4.46538 14.4 8 14.4C11.5346 14.4 14.4 11.5346 14.4 8C14.4 4.46538 11.5346 1.6 8 1.6ZM0 8C0 3.58172 3.58172 0 8 0C12.4183 0 16 3.58172 16 8C16 12.4183 12.4183 16 8 16C3.58172 16 0 12.4183 0 8Z"/>
    <path id="circle-warning" d="M8 9.6C7.55817 9.6 7.2 9.24183 7.2 8.8L7.2 4C7.2 3.55817 7.55817 3.2 8 3.2C8.44183 3.2 8.8 3.55817 8.8 4L8.8 8.8C8.8 9.24183 8.44183 9.6 8 9.6Z"/>
    <path id="circle-warning" d="M6.8 11.6C6.8 10.9373 7.33726 10.4 8 10.4C8.66274 10.4 9.2 10.9373 9.2 11.6C9.2 12.2627 8.66274 12.8 8 12.8C7.33726 12.8 6.8 12.2627 6.8 11.6Z"/>  
  </symbol>
</svg>
