<svg shape-rendering="optimizeSpeed" xmlns="http://www.w3.org/2000/svg">
  <symbol id="circle-error" fill="currentColor" viewBox="0 0 16 16">
    <path id="circle-error" d="M8 1.6C4.46538 1.6 1.6 4.46538 1.6 8C1.6 11.5346 4.46538 14.4 8 14.4C11.5346 14.4 14.4 11.5346 14.4 8C14.4 4.46538 11.5346 1.6 8 1.6ZM0 8C0 3.58172 3.58172 0 8 0C12.4183 0 16 3.58172 16 8C16 12.4183 12.4183 16 8 16C3.58172 16 0 12.4183 0 8ZM4.63431 4.63431C4.94673 4.3219 5.45327 4.3219 5.76569 4.63431L8 6.86863L10.2343 4.63431C10.5467 4.3219 11.0533 4.3219 11.3657 4.63431C11.6781 4.94673 11.6781 5.45327 11.3657 5.76569L9.13137 8L11.3657 10.2343C11.6781 10.5467 11.6781 11.0533 11.3657 11.3657C11.0533 11.6781 10.5467 11.6781 10.2343 11.3657L8 9.13137L5.76569 11.3657C5.45327 11.6781 4.94673 11.6781 4.63431 11.3657C4.3219 11.0533 4.3219 10.5467 4.63431 10.2343L6.86863 8L4.63431 5.76569C4.3219 5.45327 4.3219 4.94673 4.63431 4.63431Z"/>
  </symbol>
</svg>
