<svg shape-rendering="optimizeSpeed" xmlns="http://www.w3.org/2000/svg">
  <symbol id="circle-check" fill="currentColor" viewBox="0 0 16 16">
    <path id="circle-check" d="M8 1.6C4.46538 1.6 1.6 4.46538 1.6 8C1.6 11.5346 4.46538 14.4 8 14.4C11.5346 14.4 14.4 11.5346 14.4 8C14.4 4.46538 11.5346 1.6 8 1.6ZM0 8C0 3.58172 3.58172 0 8 0C12.4183 0 16 3.58172 16 8C16 12.4183 12.4183 16 8 16C3.58172 16 0 12.4183 0 8ZM11.7315 5.40207C12.0617 5.69561 12.0915 6.20127 11.7979 6.53149L7.53126 11.3315C7.37945 11.5023 7.16184 11.6 6.93333 11.6C6.70482 11.6 6.48722 11.5023 6.33541 11.3315L4.20207 8.93149C3.90854 8.60127 3.93828 8.09561 4.26851 7.80207C4.59874 7.50854 5.10439 7.53828 5.39793 7.86851L6.93333 9.59584L10.6021 5.46851C10.8956 5.13828 11.4013 5.10854 11.7315 5.40207Z"/>
  </symbol>
</svg>
