<svg shape-rendering="optimizeSpeed" xmlns="http://www.w3.org/2000/svg">
  <symbol id="circle-information" fill="currentColor" viewBox="0 0 16 16">
    <path id="circle-information" d="M8 1.6C4.46538 1.6 1.6 4.46538 1.6 8C1.6 11.5346 4.46538 14.4 8 14.4C11.5346 14.4 14.4 11.5346 14.4 8C14.4 4.46538 11.5346 1.6 8 1.6ZM0 8C0 3.58172 3.58172 0 8 0C12.4183 0 16 3.58172 16 8C16 12.4183 12.4183 16 8 16C3.58172 16 0 12.4183 0 8Z"/>
    <path id="circle-information" d="M8 6.4C8.44183 6.4 8.8 6.75817 8.8 7.2V12C8.8 12.4418 8.44183 12.8 8 12.8C7.55817 12.8 7.2 12.4418 7.2 12V7.2C7.2 6.75817 7.55817 6.4 8 6.4Z"/>
    <path id="circle-information" d="M9.2 4.4C9.2 5.06274 8.66274 5.6 8 5.6C7.33726 5.6 6.8 5.06274 6.8 4.4C6.8 3.73726 7.33726 3.2 8 3.2C8.66274 3.2 9.2 3.73726 9.2 4.4Z"/>
  </symbol>
</svg>
