<svg shape-rendering="optimizeSpeed" xmlns="http://www.w3.org/2000/svg">
	<symbol id="clock" viewBox="0 0 16 16" fill="currentColor">
		<path id="clock" d="M8 1.6C4.46538 1.6 1.6 4.46538 1.6 8C1.6 11.5346 4.46538 14.4 8 14.4C11.5346 14.4 14.4 11.5346 14.4 8C14.4 4.46538 11.5346 1.6 8 1.6ZM0 8C0 3.58172 3.58172 0 8 0C12.4183 0 16 3.58172 16 8C16 12.4183 12.4183 16 8 16C3.58172 16 0 12.4183 0 8ZM8 3.2C8.44183 3.2 8.8 3.55817 8.8 4V7.66863L10.9657 9.83431C11.2781 10.1467 11.2781 10.6533 10.9657 10.9657C10.6533 11.2781 10.1467 11.2781 9.83431 10.9657L7.43431 8.56569C7.28429 8.41566 7.2 8.21217 7.2 8V4C7.2 3.55817 7.55817 3.2 8 3.2Z"/>
	</symbol>
</svg>
