<svg shape-rendering="optimizeSpeed" xmlns="http://www.w3.org/2000/svg">
  <symbol id="hash" viewBox="0 0 16 16" fill="currentColor">
    <path fill-rule="evenodd" clip-rule="evenodd" d="M6.3685 1.00941C6.77751 1.07485 7.05603 1.45947 6.99058 1.86848L6.56954 4.5H10.5505L11.0094 1.6315C11.0749 1.22248 11.4595 0.943967 11.8685 1.00941C12.2775 1.07485 12.556 1.45947 12.4906 1.86848L12.0695 4.5H14.25C14.6642 4.5 15 4.83579 15 5.25C15 5.66421 14.6642 6 14.25 6H11.8295L11.1895 10H13.75C14.1642 10 14.5 10.3358 14.5 10.75C14.5 11.1642 14.1642 11.5 13.75 11.5H10.9495L10.4906 14.3685C10.4251 14.7775 10.0405 15.056 9.63151 14.9906C9.2225 14.9251 8.94398 14.5405 9.00942 14.1315L9.43046 11.5H5.44954L4.99058 14.3685C4.92514 14.7775 4.54052 15.056 4.13151 14.9906C3.7225 14.9251 3.44398 14.5405 3.50942 14.1315L3.93046 11.5H1.75C1.33579 11.5 1 11.1642 1 10.75C1 10.3358 1.33579 10 1.75 10H4.17046L4.81046 6H2.25C1.83579 6 1.5 5.66421 1.5 5.25C1.5 4.83579 1.83579 4.5 2.25 4.5H5.05046L5.50942 1.6315C5.57487 1.22248 5.95949 0.943967 6.3685 1.00941ZM9.67046 10L10.3105 6H6.32954L5.68954 10H9.67046Z" />
  </symbol>
</svg>
