<svg shape-rendering="optimizeSpeed" xmlns="http://www.w3.org/2000/svg">
    <symbol id="home" viewBox="0 0 16 16" fill="currentColor">
        <path id="home" d="M7.46851 0.202072C7.77162 -0.0673574 8.22838 -0.0673574 8.53149 0.202072L15.7315 6.60207C16.0617 6.8956 16.0915 7.40126 15.7979 7.73148C15.5044 8.06171 14.9987 8.09145 14.6685 7.79792L14.4 7.55924V13.6C14.4 14.4836 13.6836 15.2 12.8 15.2H3.20001C2.31635 15.2 1.60001 14.4836 1.60001 13.6V7.55924L1.3315 7.79792C1.00127 8.09145 0.495615 8.06171 0.202081 7.73148C-0.0914532 7.40126 -0.0617087 6.8956 0.268517 6.60207L7.46851 0.202072ZM3.20001 6.13702V13.6H5.6V9.59999C5.6 9.15816 5.95817 8.79999 6.4 8.79999H9.6C10.0418 8.79999 10.4 9.15816 10.4 9.59999V13.6H12.8V6.13702L8 1.87036L3.20001 6.13702ZM8.8 13.6V10.4H7.2V13.6H8.8Z" />
    </symbol>
</svg>
