<svg shape-rendering="optimizeSpeed" xmlns="http://www.w3.org/2000/svg">
  <symbol id="logo" viewBox="0 0 16 16">
    <path d="M10.2029 15C7.00121 15 4.40576 12.4045 4.40576 9.2029C4.40576 6.00125 7.00121 3.4058 10.2029 3.4058C13.4045 3.4058 16 6.00125 16 9.2029L16 15H10.2029Z" fill="#93C5FD"/>
    <path d="M0 13.1449L0 7.3478C0 4.14614 2.59545 1.55069 5.7971 1.55069V1.55069C8.99875 1.55069 11.5942 4.14614 11.5942 7.3478V7.3478C11.5942 10.5494 8.99875 13.1449 5.7971 13.1449L0 13.1449Z" fill="#60A5FA"/>
    <path fill-rule="evenodd" clip-rule="evenodd" d="M10.0495 3.40975C11.0081 4.44393 11.5942 5.82842 11.5942 7.34979C11.5942 10.5001 9.08122 13.0636 5.95047 13.1449C4.99181 12.1107 4.40576 10.7262 4.40576 9.20486C4.40576 6.0545 6.91873 3.49108 10.0495 3.40975Z" fill="#3B82F6"/>
  </symbol>
</svg>
