<svg shape-rendering="optimizeSpeed" xmlns="http://www.w3.org/2000/svg">
	<symbol id="message-alt" viewBox="0 0 16 16" fill="currentColor">
		<path id="message-alt" d="M0 2.6C0 1.71634 0.716344 1 1.6 1H14.4C15.2837 1 16 1.71634 16 2.6V11.4C16 12.2837 15.2837 13 14.4 13H10.7314L8.56569 15.1657C8.25327 15.4781 7.74673 15.4781 7.43431 15.1657L5.26863 13H1.6C0.716344 13 0 12.2837 0 11.4V2.6ZM14.4 2.6H1.6V11.4H5.6C5.81217 11.4 6.01566 11.4843 6.16569 11.6343L8 13.4686L9.83431 11.6343C9.98434 11.4843 10.1878 11.4 10.4 11.4H14.4V2.6Z" />
		<path id="message-alt" d="M9.2 7C9.2 7.66274 8.66274 8.2 8 8.2C7.33726 8.2 6.8 7.66274 6.8 7C6.8 6.33726 7.33726 5.8 8 5.8C8.66274 5.8 9.2 6.33726 9.2 7Z" />
		<path id="message-alt" d="M12.4 7C12.4 7.66274 11.8627 8.2 11.2 8.2C10.5373 8.2 10 7.66274 10 7C10 6.33726 10.5373 5.8 11.2 5.8C11.8627 5.8 12.4 6.33726 12.4 7Z" />
		<path id="message-alt" d="M6 7C6 7.66274 5.46274 8.2 4.8 8.2C4.13726 8.2 3.6 7.66274 3.6 7C3.6 6.33726 4.13726 5.8 4.8 5.8C5.46274 5.8 6 6.33726 6 7Z" />
	</symbol>
</svg>
