<svg shape-rendering="optimizeSpeed" xmlns="http://www.w3.org/2000/svg">
	<symbol id="notification" viewBox="0 0 16 16" fill="currentColor">
		<path id="notification" d="M6.7641 2.16545C6.9622 1.67748 7.44092 1.33337 8 1.33337C8.55909 1.33337 9.0378 1.67748 9.23591 2.16545C11.2134 2.70719 12.6667 4.51724 12.6667 6.66671V9.79819L13.888 11.6302C14.0244 11.8348 14.0371 12.0978 13.9211 12.3146C13.8051 12.5314 13.5792 12.6667 13.3333 12.6667H10.3097C10.148 13.7975 9.17549 14.6667 8 14.6667C6.82451 14.6667 5.85204 13.7975 5.6903 12.6667H2.66667C2.4208 12.6667 2.1949 12.5314 2.07888 12.3146C1.96287 12.0978 1.97559 11.8348 2.11197 11.6302L3.33333 9.79819V6.66671C3.33333 4.51724 4.78655 2.70719 6.7641 2.16545ZM7.0569 12.6667C7.19418 13.0551 7.5646 13.3334 8 13.3334C8.43541 13.3334 8.80582 13.0551 8.9431 12.6667H7.0569ZM8 3.33337C6.15905 3.33337 4.66667 4.82576 4.66667 6.66671V10C4.66667 10.1317 4.62771 10.2603 4.5547 10.3698L3.91235 11.3334H12.0877L11.4453 10.3698C11.3723 10.2603 11.3333 10.1317 11.3333 10V6.66671C11.3333 4.82576 9.84095 3.33337 8 3.33337Z" />
	</symbol>
</svg>
