<svg shape-rendering="optimizeSpeed" xmlns="http://www.w3.org/2000/svg">
	<symbol id="send" viewBox="0 0 16 16" fill="currentColor">
		<path id="send" d="M8 1.33337C8.25251 1.33337 8.48336 1.47604 8.59629 1.7019L14.5963 13.7019C14.7113 13.9319 14.6837 14.2076 14.5255 14.4103C14.3672 14.613 14.1064 14.7066 13.8554 14.6508L8 13.3496L2.14462 14.6508C1.89356 14.7066 1.6328 14.613 1.47453 14.4103C1.31626 14.2076 1.2887 13.9319 1.40372 13.7019L7.40372 1.7019C7.51664 1.47604 7.74749 1.33337 8 1.33337ZM8.66667 12.1319L12.7773 13.0454L8.66667 4.82409V12.1319ZM7.33333 4.82409L3.22267 13.0454L7.33333 12.1319V4.82409Z" />
	</symbol>
</svg>
