<svg shape-rendering="optimizeSpeed" xmlns="http://www.w3.org/2000/svg">
    <symbol id="sun" viewBox="0 0 16 16" fill="currentColor">
        <path id="sun" d="M8 1.33337C8.36819 1.33337 8.66666 1.63185 8.66666 2.00004V2.66671C8.66666 3.0349 8.36819 3.33337 8 3.33337C7.6318 3.33337 7.33333 3.0349 7.33333 2.66671V2.00004C7.33333 1.63185 7.6318 1.33337 8 1.33337ZM12.7141 3.28599C12.9744 3.54634 12.9744 3.96845 12.7141 4.2288L12.2427 4.7002C11.9823 4.96055 11.5602 4.96055 11.2999 4.7002C11.0395 4.43986 11.0395 4.01775 11.2999 3.7574L11.7713 3.28599C12.0316 3.02564 12.4537 3.02564 12.7141 3.28599ZM3.28595 3.28599C3.5463 3.02564 3.96841 3.02564 4.22875 3.28599L4.70016 3.7574C4.96051 4.01775 4.96051 4.43986 4.70016 4.7002C4.43981 4.96055 4.0177 4.96055 3.75735 4.7002L3.28595 4.2288C3.0256 3.96845 3.0256 3.54634 3.28595 3.28599ZM8 5.33337C6.52724 5.33337 5.33333 6.52728 5.33333 8.00004C5.33333 9.4728 6.52724 10.6667 8 10.6667C9.47275 10.6667 10.6667 9.4728 10.6667 8.00004C10.6667 6.52728 9.47275 5.33337 8 5.33337ZM3.99999 8.00004C3.99999 5.7909 5.79086 4.00004 8 4.00004C10.2091 4.00004 12 5.7909 12 8.00004C12 10.2092 10.2091 12 8 12C5.79086 12 3.99999 10.2092 3.99999 8.00004ZM1.33333 8.00004C1.33333 7.63185 1.63181 7.33337 1.99999 7.33337H2.66666C3.03485 7.33337 3.33333 7.63185 3.33333 8.00004C3.33333 8.36823 3.03485 8.66671 2.66666 8.66671H1.99999C1.63181 8.66671 1.33333 8.36823 1.33333 8.00004ZM12.6667 8.00004C12.6667 7.63185 12.9651 7.33337 13.3333 7.33337H14C14.3682 7.33337 14.6667 7.63185 14.6667 8.00004C14.6667 8.36823 14.3682 8.66671 14 8.66671H13.3333C12.9651 8.66671 12.6667 8.36823 12.6667 8.00004ZM3.75735 11.2999C4.0177 11.0395 4.43981 11.0395 4.70016 11.2999C4.96051 11.5602 4.96051 11.9823 4.70016 12.2427L4.22875 12.7141C3.96841 12.9744 3.5463 12.9744 3.28595 12.7141C3.0256 12.4537 3.0256 12.0316 3.28595 11.7713L3.75735 11.2999ZM11.2999 12.2427C11.0395 11.9823 11.0395 11.5602 11.2999 11.2999C11.5602 11.0395 11.9823 11.0395 12.2427 11.2999L12.7141 11.7713C12.9744 12.0316 12.9744 12.4537 12.7141 12.7141C12.4537 12.9744 12.0316 12.9744 11.7713 12.7141L11.2999 12.2427ZM8 12.6667C8.36819 12.6667 8.66666 12.9652 8.66666 13.3334V14C8.66666 14.3682 8.36819 14.6667 8 14.6667C7.6318 14.6667 7.33333 14.3682 7.33333 14V13.3334C7.33333 12.9652 7.6318 12.6667 8 12.6667Z" />
    </symbol>
</svg>
