<svg shape-rendering="optimizeSpeed" xmlns="http://www.w3.org/2000/svg">
	<symbol id="tag" viewBox="0 0 16 16" fill="currentColor">
		<path id="tag" d="M1.33333 2.00004C1.33333 1.63185 1.63181 1.33337 1.99999 1.33337H7.33333C7.51014 1.33337 7.67971 1.40361 7.80473 1.52864L14.4714 8.1953C14.7317 8.45565 14.7317 8.87776 14.4714 9.13811L9.13807 14.4714C8.87772 14.7318 8.45561 14.7318 8.19526 14.4714L1.52859 7.80478C1.40357 7.67975 1.33333 7.51019 1.33333 7.33337V2.00004ZM2.66666 2.66671V7.05723L8.66666 13.0572L13.0572 8.66671L7.05719 2.66671H2.66666Z" />
		<path id="tag" d="M6 5.00004C6 5.55233 5.55228 6.00004 4.99999 6.00004C4.44771 6.00004 3.99999 5.55233 3.99999 5.00004C3.99999 4.44776 4.44771 4.00004 4.99999 4.00004C5.55228 4.00004 6 4.44776 6 5.00004Z" />
	</symbol>
</svg>
