<svg xmlns="http://www.w3.org/2000/svg">
    <symbol id="task-list" viewBox="0 0 16 16" fill="currentColor">
        <path id="task-list" d="M6 7.6C6.44183 7.6 6.8 7.24183 6.8 6.8C6.8 6.35817 6.44183 6 6 6C5.55817 6 5.2 6.35817 5.2 6.8C5.2 7.24183 5.55817 7.6 6 7.6Z" />
        <path id="task-list" d="M7.6 6.8C7.6 6.35817 7.95817 6 8.4 6H10.8C11.2418 6 11.6 6.35817 11.6 6.8C11.6 7.24183 11.2418 7.6 10.8 7.6H8.4C7.95817 7.6 7.6 7.24183 7.6 6.8Z" />
        <path id="task-list" d="M8.4 8.4C7.95817 8.4 7.6 8.75817 7.6 9.2C7.6 9.64183 7.95817 10 8.4 10H10.8C11.2418 10 11.6 9.64183 11.6 9.2C11.6 8.75817 11.2418 8.4 10.8 8.4H8.4Z" />
        <path id="task-list" d="M8.4 10.8C7.95817 10.8 7.6 11.1582 7.6 11.6C7.6 12.0418 7.95817 12.4 8.4 12.4H10.8C11.2418 12.4 11.6 12.0418 11.6 11.6C11.6 11.1582 11.2418 10.8 10.8 10.8H8.4Z" />
        <path id="task-list" d="M6.8 9.2C6.8 9.64183 6.44183 10 6 10C5.55817 10 5.2 9.64183 5.2 9.2C5.2 8.75817 5.55817 8.4 6 8.4C6.44183 8.4 6.8 8.75817 6.8 9.2Z" />
        <path id="task-list" d="M6 12.4C6.44183 12.4 6.8 12.0418 6.8 11.6C6.8 11.1582 6.44183 10.8 6 10.8C5.55817 10.8 5.2 11.1582 5.2 11.6C5.2 12.0418 5.55817 12.4 6 12.4Z" />
        <path id="task-list" d="M6 0C5.55817 0 5.2 0.358172 5.2 0.8H3.6C2.71634 0.8 2 1.51634 2 2.4V14.4C2 15.2837 2.71635 16 3.6 16H13.2C14.0837 16 14.8 15.2837 14.8 14.4V2.4C14.8 1.51634 14.0837 0.8 13.2 0.8H11.6C11.6 0.358172 11.2418 0 10.8 0H6ZM11.6 2.4H13.2V14.4H3.6V2.4H5.2V3.2C5.2 3.64183 5.55817 4 6 4H10.8C11.2418 4 11.6 3.64183 11.6 3.2V2.4ZM6.8 2.4V1.6H10V2.4H6.8Z" />
    </symbol>
</svg>
