<svg shape-rendering="optimizeSpeed" xmlns="http://www.w3.org/2000/svg">
    <symbol id="telegram" viewBox="0 0 16 16" fill="currentColor">
        <path id="telegram" d="M1.09992 6.7083C5.39487 4.83705 8.25885 3.60341 9.69185 3.00738C13.7834 1.30558 14.6335 1.00996 15.1877 1.00009C15.3095 0.998052 15.582 1.02826 15.7586 1.17149C15.9076 1.29243 15.9486 1.45581 15.9683 1.57048C15.9879 1.68514 16.0123 1.94636 15.9929 2.15046C15.7712 4.48009 14.8118 10.1335 14.3237 12.7427C14.1172 13.8468 13.7105 14.217 13.3168 14.2532C12.4613 14.3319 11.8116 13.6878 10.9829 13.1446C9.68624 12.2946 8.95369 11.7654 7.69503 10.936C6.24042 9.97744 7.18338 9.4506 8.01236 8.58959C8.22931 8.36426 11.999 4.93546 12.0719 4.62441C12.0811 4.58551 12.0895 4.44051 12.0034 4.36394C11.9172 4.28737 11.7901 4.31355 11.6983 4.33438C11.5683 4.36389 9.4968 5.73307 5.48389 8.4419C4.89591 8.84565 4.36333 9.04237 3.88616 9.03207C3.36012 9.0207 2.34822 8.73463 1.59598 8.49011C0.673328 8.19019 -0.0599784 8.03162 0.00387615 7.52227C0.0371355 7.25697 0.402482 6.98564 1.09992 6.7083Z" />
    </symbol>
</svg>
