<svg shape-rendering="optimizeSpeed" xmlns="http://www.w3.org/2000/svg">
	<symbol id="thread" viewBox="0 0 16 16" fill="currentColor">
		<path id="thread" fill-rule="evenodd" clip-rule="evenodd" d="M4.42954 2.57508V2.57051V2.57623C4.42879 2.80329 4.33795 3.02079 4.17699 3.18094C4.01602 3.3411 3.79809 3.43085 3.57102 3.43047C3.34395 3.43009 3.12631 3.33962 2.96588 3.17893C2.80546 3.01823 2.71535 2.80043 2.71535 2.57337C2.71535 2.3463 2.80546 2.12851 2.96588 1.96781C3.12631 1.80711 3.34395 1.71665 3.57102 1.71627C3.79809 1.71589 4.01602 1.80564 4.17699 1.96579C4.33795 2.12595 4.42879 2.34344 4.42954 2.57051V2.57508ZM4.9438 4.7464C5.43611 4.43602 5.80856 3.9678 6.00026 3.41831C6.19198 2.86881 6.1916 2.27053 5.99921 1.72126C5.80681 1.172 5.43378 0.704253 4.94108 0.394486C4.44839 0.0847306 3.86518 -0.0487369 3.2868 0.0159226C2.70842 0.0805822 2.16909 0.33954 1.75696 0.750457C1.34483 1.16138 1.0843 1.69995 1.01795 2.27814C0.951596 2.85633 1.08335 3.43992 1.39168 3.93353C1.69999 4.42713 2.16665 4.80153 2.71535 4.99553V11.0021C2.14316 11.2042 1.66087 11.6023 1.35376 12.1257C1.04663 12.6491 0.934442 13.2643 1.03702 13.8624C1.13959 14.4604 1.45032 15.0031 1.91429 15.3942C2.37825 15.7854 2.96558 16 3.57244 16C4.17931 16 4.76662 15.7854 5.23059 15.3942C5.69457 15.0031 6.00529 14.4604 6.10787 13.8624C6.21045 13.2643 6.09826 12.6491 5.79113 12.1257C5.484 11.6023 5.00173 11.2042 4.42954 11.0021V6.99657C5.04468 7.67314 5.79458 8.21352 6.63104 8.58294C7.46752 8.95236 8.37203 9.14267 9.28644 9.14161H10.8612C11.0634 9.71379 11.4614 10.1961 11.9848 10.5033C12.5082 10.8103 13.1234 10.9225 13.7215 10.8199C14.3196 10.7174 14.8623 10.4066 15.2533 9.94266C15.6445 9.47869 15.8591 8.89137 15.8591 8.28451C15.8591 7.67765 15.6445 7.09032 15.2533 6.62635C14.8623 6.16239 14.3196 5.85165 13.7215 5.74908C13.1234 5.6465 12.5082 5.75869 11.9848 6.06582C11.4614 6.37294 11.0634 6.85522 10.8612 7.42741H9.28644C8.38511 7.42748 7.50154 7.17675 6.73459 6.70326C5.96766 6.22978 5.3476 5.55221 4.9438 4.7464ZM13.2862 9.14161C13.5135 9.14161 13.7316 9.0513 13.8923 8.89057C14.0531 8.72983 14.1433 8.51182 14.1433 8.28451C14.1433 8.05719 14.0531 7.83918 13.8923 7.67845C13.7316 7.51771 13.5135 7.42741 13.2862 7.42741C13.0589 7.42741 12.8409 7.51771 12.6802 7.67845C12.5194 7.83918 12.4291 8.05719 12.4291 8.28451C12.4291 8.51182 12.5194 8.72983 12.6802 8.89057C12.8409 9.0513 13.0589 9.14161 13.2862 9.14161ZM3.57244 14.2842C3.79976 14.2842 4.01777 14.1939 4.17851 14.0331C4.33924 13.8725 4.42954 13.6544 4.42954 13.4271C4.42954 13.1998 4.33924 12.9818 4.17851 12.8211C4.01777 12.6603 3.79976 12.57 3.57244 12.57C3.34513 12.57 3.12712 12.6603 2.96638 12.8211C2.80565 12.9818 2.71535 13.1998 2.71535 13.4271C2.71535 13.6544 2.80565 13.8725 2.96638 14.0331C3.12712 14.1939 3.34513 14.2842 3.57244 14.2842Z" />
	</symbol>
</svg>
